<?xml version="1.0" encoding="UTF-8" standalone="no"?>
<!DOCTYPE svg PUBLIC "-//W3C//DTD SVG 1.1//EN"
 "http://www.w3.org/Graphics/SVG/1.1/DTD/svg11.dtd">
<!-- Generated by graphviz version 2.40.1 (20161225.0304)
 -->
<!-- Title: dependency&#45;cruiser output Pages: 1 -->
<svg width="351pt" height="564pt"
 viewBox="0.00 0.00 351.00 564.00" xmlns="http://www.w3.org/2000/svg" xmlns:xlink="http://www.w3.org/1999/xlink">
<g id="graph0" class="graph" transform="scale(1 1) rotate(0) translate(4 560)">
<title>dependency&#45;cruiser output</title>
<polygon fill="#ffffff" stroke="transparent" points="-4,4 -4,-560 347,-560 347,4 -4,4"/>
<g id="clust1" class="cluster">
<title>cluster_src</title>
<path fill="#ffffff" stroke="#000000" stroke-width="2" d="M20,-8C20,-8 323,-8 323,-8 329,-8 335,-14 335,-20 335,-20 335,-536 335,-536 335,-542 329,-548 323,-548 323,-548 20,-548 20,-548 14,-548 8,-542 8,-536 8,-536 8,-20 8,-20 8,-14 14,-8 20,-8"/>
<text text-anchor="middle" x="171.5" y="-536.8" font-family="Helvetica,sans-Serif" font-weight="bold" font-size="9.00" fill="#000000">src</text>
</g>
<g id="clust2" class="cluster">
<title>cluster_src/common</title>
<path fill="#ffffff" stroke="#000000" stroke-width="2" d="M28,-320C28,-320 90,-320 90,-320 96,-320 102,-326 102,-332 102,-332 102,-390 102,-390 102,-396 96,-402 90,-402 90,-402 28,-402 28,-402 22,-402 16,-396 16,-390 16,-390 16,-332 16,-332 16,-326 22,-320 28,-320"/>
<text text-anchor="middle" x="59" y="-390.8" font-family="Helvetica,sans-Serif" font-weight="bold" font-size="9.00" fill="#000000">common</text>
</g>
<g id="clust3" class="cluster">
<title>cluster_src/router</title>
<path fill="#ffffff" stroke="#000000" stroke-width="2" d="M122,-151C122,-151 168,-151 168,-151 174,-151 180,-157 180,-163 180,-163 180,-191 180,-191 180,-197 174,-203 168,-203 168,-203 122,-203 122,-203 116,-203 110,-197 110,-191 110,-191 110,-163 110,-163 110,-157 116,-151 122,-151"/>
<text text-anchor="middle" x="145" y="-191.8" font-family="Helvetica,sans-Serif" font-weight="bold" font-size="9.00" fill="#000000">router</text>
</g>
<g id="clust4" class="cluster">
<title>cluster_src/store</title>
<path fill="#ffffff" stroke="#000000" stroke-width="2" d="M122,-346C122,-346 313.5,-346 313.5,-346 319.5,-346 325.5,-352 325.5,-358 325.5,-358 325.5,-510 325.5,-510 325.5,-516 319.5,-522 313.5,-522 313.5,-522 122,-522 122,-522 116,-522 110,-516 110,-510 110,-510 110,-358 110,-358 110,-352 116,-346 122,-346"/>
<text text-anchor="middle" x="217.75" y="-510.8" font-family="Helvetica,sans-Serif" font-weight="bold" font-size="9.00" fill="#000000">store</text>
</g>
<g id="clust5" class="cluster">
<title>cluster_src/store/modules</title>
<path fill="#ffffff" stroke="#000000" stroke-width="2" d="M209.5,-354C209.5,-354 305.5,-354 305.5,-354 311.5,-354 317.5,-360 317.5,-366 317.5,-366 317.5,-484 317.5,-484 317.5,-490 311.5,-496 305.5,-496 305.5,-496 209.5,-496 209.5,-496 203.5,-496 197.5,-490 197.5,-484 197.5,-484 197.5,-366 197.5,-366 197.5,-360 203.5,-354 209.5,-354"/>
<text text-anchor="middle" x="257.5" y="-484.8" font-family="Helvetica,sans-Serif" font-weight="bold" font-size="9.00" fill="#000000">modules</text>
</g>
<g id="clust6" class="cluster">
<title>cluster_src/views</title>
<path fill="#ffffff" stroke="#000000" stroke-width="2" d="M200,-16C200,-16 315,-16 315,-16 321,-16 327,-22 327,-28 327,-28 327,-326 327,-326 327,-332 321,-338 315,-338 315,-338 200,-338 200,-338 194,-338 188,-332 188,-326 188,-326 188,-28 188,-28 188,-22 194,-16 200,-16"/>
<text text-anchor="middle" x="257.5" y="-326.8" font-family="Helvetica,sans-Serif" font-weight="bold" font-size="9.00" fill="#000000">views</text>
</g>
<g id="clust7" class="cluster">
<title>cluster_src/views/Campaigncreation</title>
<path fill="#ffffff" stroke="#000000" stroke-width="2" d="M222.5,-260C222.5,-260 293.5,-260 293.5,-260 299.5,-260 305.5,-266 305.5,-272 305.5,-272 305.5,-300 305.5,-300 305.5,-306 299.5,-312 293.5,-312 293.5,-312 222.5,-312 222.5,-312 216.5,-312 210.5,-306 210.5,-300 210.5,-300 210.5,-272 210.5,-272 210.5,-266 216.5,-260 222.5,-260"/>
<text text-anchor="middle" x="258" y="-300.8" font-family="Helvetica,sans-Serif" font-weight="bold" font-size="9.00" fill="#000000">Campaigncreation</text>
</g>
<!-- src/App.vue -->
<g id="node1" class="node">
<title>src/App.vue</title>
<g id="a_node1"><a xlink:href="src/App.vue" xlink:title="App.vue">
<path fill="#41f083" stroke="#000000" d="M166,-143C166,-143 124,-143 124,-143 121,-143 118,-140 118,-137 118,-137 118,-131 118,-131 118,-128 121,-125 124,-125 124,-125 166,-125 166,-125 169,-125 172,-128 172,-131 172,-131 172,-137 172,-137 172,-140 169,-143 166,-143"/>
<text text-anchor="middle" x="145" y="-131.8" font-family="Helvetica,sans-Serif" font-size="9.00" fill="#000000">App.vue</text>
</a>
</g>
</g>
<!-- src/common/api.service.js -->
<g id="node2" class="node">
<title>src/common/api.service.js</title>
<g id="a_node2"><a xlink:href="src/common/api.service.js" xlink:title="api.service.js">
<path fill="#ccffcc" stroke="#000000" d="M88,-376C88,-376 30,-376 30,-376 27,-376 24,-373 24,-370 24,-370 24,-364 24,-364 24,-361 27,-358 30,-358 30,-358 88,-358 88,-358 91,-358 94,-361 94,-364 94,-364 94,-370 94,-370 94,-373 91,-376 88,-376"/>
<text text-anchor="middle" x="59" y="-364.8" font-family="Helvetica,sans-Serif" font-size="9.00" fill="#000000">api.service.js</text>
</a>
</g>
</g>
<!-- src/common/jwt.service.js -->
<g id="node3" class="node">
<title>src/common/jwt.service.js</title>
<g id="a_node3"><a xlink:href="src/common/jwt.service.js" xlink:title="jwt.service.js">
<path fill="#ccffcc" stroke="#000000" d="M87,-346C87,-346 31,-346 31,-346 28,-346 25,-343 25,-340 25,-340 25,-334 25,-334 25,-331 28,-328 31,-328 31,-328 87,-328 87,-328 90,-328 93,-331 93,-334 93,-334 93,-340 93,-340 93,-343 90,-346 87,-346"/>
<text text-anchor="middle" x="59" y="-334.8" font-family="Helvetica,sans-Serif" font-size="9.00" fill="#000000">jwt.service.js</text>
</a>
</g>
</g>
<!-- src/main.js -->
<g id="node4" class="node">
<title>src/main.js</title>
<g id="a_node4"><a xlink:href="src/main.js" xlink:title="main.js">
<path fill="#ffffcc" stroke="#000000" d="M80,-177C80,-177 38,-177 38,-177 35,-177 32,-174 32,-171 32,-171 32,-165 32,-165 32,-162 35,-159 38,-159 38,-159 80,-159 80,-159 83,-159 86,-162 86,-165 86,-165 86,-171 86,-171 86,-174 83,-177 80,-177"/>
<text text-anchor="middle" x="59" y="-165.8" font-family="Helvetica,sans-Serif" font-size="9.00" fill="#000000">main.js</text>
</a>
</g>
</g>
<!-- src/main.js&#45;&gt;src/App.vue -->
<g id="edge1" class="edge">
<title>src/main.js&#45;&gt;src/App.vue</title>
<path fill="none" stroke="#000000" stroke-width="2" stroke-opacity="0.200000" d="M82.0464,-158.8886C92.6387,-154.701 105.3065,-149.6928 116.4925,-145.2704"/>
<polygon fill="#000000" fill-opacity="0.200000" stroke="#000000" stroke-width="2" stroke-opacity="0.200000" points="117.3805,-147.1776 122.1882,-143.0186 115.8363,-143.2717 117.3805,-147.1776"/>
</g>
<!-- src/router/index.js -->
<g id="node5" class="node">
<title>src/router/index.js</title>
<g id="a_node5"><a xlink:href="src/router/index.js" xlink:title="index.js">
<path fill="#ffffcc" stroke="#000000" d="M166,-177C166,-177 124,-177 124,-177 121,-177 118,-174 118,-171 118,-171 118,-165 118,-165 118,-162 121,-159 124,-159 124,-159 166,-159 166,-159 169,-159 172,-162 172,-165 172,-165 172,-171 172,-171 172,-174 169,-177 166,-177"/>
<text text-anchor="middle" x="145" y="-165.8" font-family="Helvetica,sans-Serif" font-size="9.00" fill="#000000">index.js</text>
</a>
</g>
</g>
<!-- src/main.js&#45;&gt;src/router/index.js -->
<g id="edge2" class="edge">
<title>src/main.js&#45;&gt;src/router/index.js</title>
<path fill="none" stroke="#000000" stroke-width="2" stroke-opacity="0.200000" d="M86.2109,-168C94.289,-168 103.2304,-168 111.6511,-168"/>
<polygon fill="#000000" fill-opacity="0.200000" stroke="#000000" stroke-width="2" stroke-opacity="0.200000" points="111.9661,-170.1001 117.9661,-168 111.966,-165.9001 111.9661,-170.1001"/>
</g>
<!-- src/store/index.js -->
<g id="node6" class="node">
<title>src/store/index.js</title>
<g id="a_node6"><a xlink:href="src/store/index.js" xlink:title="index.js">
<path fill="#ffffcc" stroke="#000000" d="M166,-410C166,-410 124,-410 124,-410 121,-410 118,-407 118,-404 118,-404 118,-398 118,-398 118,-395 121,-392 124,-392 124,-392 166,-392 166,-392 169,-392 172,-395 172,-398 172,-398 172,-404 172,-404 172,-407 169,-410 166,-410"/>
<text text-anchor="middle" x="145" y="-398.8" font-family="Helvetica,sans-Serif" font-size="9.00" fill="#000000">index.js</text>
</a>
</g>
</g>
<!-- src/main.js&#45;&gt;src/store/index.js -->
<g id="edge3" class="edge">
<title>src/main.js&#45;&gt;src/store/index.js</title>
<path fill="none" stroke="#000000" stroke-width="2" stroke-opacity="0.200000" d="M62.3713,-177.1339C75.4838,-212.6596 123.1642,-341.8403 139.4802,-386.0451"/>
<polygon fill="#000000" fill-opacity="0.200000" stroke="#000000" stroke-width="2" stroke-opacity="0.200000" points="137.6043,-387.0276 141.652,-391.9293 141.5444,-385.5733 137.6043,-387.0276"/>
</g>
<!-- src/views/About.vue -->
<g id="node7" class="node">
<title>src/views/About.vue</title>
<g id="a_node7"><a xlink:href="src/views/About.vue" xlink:title="About.vue">
<path fill="#41f083" stroke="#000000" d="M280.5,-252C280.5,-252 234.5,-252 234.5,-252 231.5,-252 228.5,-249 228.5,-246 228.5,-246 228.5,-240 228.5,-240 228.5,-237 231.5,-234 234.5,-234 234.5,-234 280.5,-234 280.5,-234 283.5,-234 286.5,-237 286.5,-240 286.5,-240 286.5,-246 286.5,-246 286.5,-249 283.5,-252 280.5,-252"/>
<text text-anchor="middle" x="257.5" y="-240.8" font-family="Helvetica,sans-Serif" font-size="9.00" fill="#000000">About.vue</text>
</a>
</g>
</g>
<!-- src/router/index.js&#45;&gt;src/views/About.vue -->
<g id="edge4" class="edge">
<title>src/router/index.js&#45;&gt;src/views/About.vue</title>
<path fill="none" stroke="#000000" stroke-width="2" stroke-opacity="0.200000" d="M149.02,-177.378C155.2906,-190.822 168.7143,-215.3434 188,-228 198.1063,-234.6324 210.6508,-238.3856 222.2892,-240.4917"/>
<polygon fill="#000000" fill-opacity="0.200000" stroke="#000000" stroke-width="2" stroke-opacity="0.200000" points="222.0185,-242.5751 228.275,-241.4495 222.6822,-238.4278 222.0185,-242.5751"/>
</g>
<!-- src/views/Calculator.vue -->
<g id="node8" class="node">
<title>src/views/Calculator.vue</title>
<g id="a_node8"><a xlink:href="src/views/Calculator.vue" xlink:title="Calculator.vue">
<path fill="#41f083" stroke="#000000" d="M289.5,-222C289.5,-222 225.5,-222 225.5,-222 222.5,-222 219.5,-219 219.5,-216 219.5,-216 219.5,-210 219.5,-210 219.5,-207 222.5,-204 225.5,-204 225.5,-204 289.5,-204 289.5,-204 292.5,-204 295.5,-207 295.5,-210 295.5,-210 295.5,-216 295.5,-216 295.5,-219 292.5,-222 289.5,-222"/>
<text text-anchor="middle" x="257.5" y="-210.8" font-family="Helvetica,sans-Serif" font-size="9.00" fill="#000000">Calculator.vue</text>
</a>
</g>
</g>
<!-- src/router/index.js&#45;&gt;src/views/Calculator.vue -->
<g id="edge5" class="edge">
<title>src/router/index.js&#45;&gt;src/views/Calculator.vue</title>
<path fill="none" stroke="#000000" stroke-width="2" stroke-opacity="0.200000" d="M155.5894,-177.196C163.8798,-183.927 175.9832,-192.7647 188,-198 195.9993,-201.485 204.88,-204.1891 213.5455,-206.2778"/>
<polygon fill="#000000" fill-opacity="0.200000" stroke="#000000" stroke-width="2" stroke-opacity="0.200000" points="213.1808,-208.3484 219.4967,-207.6275 214.1098,-204.2524 213.1808,-208.3484"/>
</g>
<!-- src/views/Campaigncreation/index.vue -->
<g id="node9" class="node">
<title>src/views/Campaigncreation/index.vue</title>
<g id="a_node9"><a xlink:href="src/views/Campaigncreation/index.vue" xlink:title="index.vue">
<path fill="#41f083" stroke="#000000" d="M279.5,-286C279.5,-286 235.5,-286 235.5,-286 232.5,-286 229.5,-283 229.5,-280 229.5,-280 229.5,-274 229.5,-274 229.5,-271 232.5,-268 235.5,-268 235.5,-268 279.5,-268 279.5,-268 282.5,-268 285.5,-271 285.5,-274 285.5,-274 285.5,-280 285.5,-280 285.5,-283 282.5,-286 279.5,-286"/>
<text text-anchor="middle" x="257.5" y="-274.8" font-family="Helvetica,sans-Serif" font-size="9.00" fill="#000000">index.vue</text>
</a>
</g>
</g>
<!-- src/router/index.js&#45;&gt;src/views/Campaigncreation/index.vue -->
<g id="edge6" class="edge">
<title>src/router/index.js&#45;&gt;src/views/Campaigncreation/index.vue</title>
<path fill="none" stroke="#000000" stroke-width="2" stroke-opacity="0.200000" d="M146.2477,-177.1044C149.4071,-196.4324 159.597,-241.6224 188,-264 197.8531,-271.7629 210.914,-275.3997 223.0518,-276.9676"/>
<polygon fill="#000000" fill-opacity="0.200000" stroke="#000000" stroke-width="2" stroke-opacity="0.200000" points="223.1096,-279.0845 229.293,-277.6098 223.5395,-274.9066 223.1096,-279.0845"/>
</g>
<!-- src/views/DynamicTable.vue -->
<g id="node10" class="node">
<title>src/views/DynamicTable.vue</title>
<g id="a_node10"><a xlink:href="src/views/DynamicTable.vue" xlink:title="DynamicTable.vue">
<path fill="#41f083" stroke="#000000" d="M298,-192C298,-192 217,-192 217,-192 214,-192 211,-189 211,-186 211,-186 211,-180 211,-180 211,-177 214,-174 217,-174 217,-174 298,-174 298,-174 301,-174 304,-177 304,-180 304,-180 304,-186 304,-186 304,-189 301,-192 298,-192"/>
<text text-anchor="middle" x="257.5" y="-180.8" font-family="Helvetica,sans-Serif" font-size="9.00" fill="#000000">DynamicTable.vue</text>
</a>
</g>
</g>
<!-- src/router/index.js&#45;&gt;src/views/DynamicTable.vue -->
<g id="edge7" class="edge">
<title>src/router/index.js&#45;&gt;src/views/DynamicTable.vue</title>
<path fill="none" stroke="#000000" stroke-width="2" stroke-opacity="0.200000" d="M172.2331,-171.6311C181.9996,-172.9333 193.3732,-174.4498 204.5707,-175.9428"/>
<polygon fill="#000000" fill-opacity="0.200000" stroke="#000000" stroke-width="2" stroke-opacity="0.200000" points="204.5372,-178.0568 210.7621,-176.7683 205.0923,-173.8936 204.5372,-178.0568"/>
</g>
<!-- src/views/Home.vue -->
<g id="node11" class="node">
<title>src/views/Home.vue</title>
<g id="a_node11"><a xlink:href="src/views/Home.vue" xlink:title="Home.vue">
<path fill="#41f083" stroke="#000000" d="M281,-162C281,-162 234,-162 234,-162 231,-162 228,-159 228,-156 228,-156 228,-150 228,-150 228,-147 231,-144 234,-144 234,-144 281,-144 281,-144 284,-144 287,-147 287,-150 287,-150 287,-156 287,-156 287,-159 284,-162 281,-162"/>
<text text-anchor="middle" x="257.5" y="-150.8" font-family="Helvetica,sans-Serif" font-size="9.00" fill="#000000">Home.vue</text>
</a>
</g>
</g>
<!-- src/router/index.js&#45;&gt;src/views/Home.vue -->
<g id="edge8" class="edge">
<title>src/router/index.js&#45;&gt;src/views/Home.vue</title>
<path fill="none" stroke="#000000" stroke-width="2" stroke-opacity="0.200000" d="M172.2331,-164.3689C187.0444,-162.3941 205.5519,-159.9264 221.536,-157.7952"/>
<polygon fill="#000000" fill-opacity="0.200000" stroke="#000000" stroke-width="2" stroke-opacity="0.200000" points="222.0836,-159.8409 227.7534,-156.9662 221.5284,-155.6777 222.0836,-159.8409"/>
</g>
<!-- src/views/SelectCityFromMap.vue -->
<g id="node12" class="node">
<title>src/views/SelectCityFromMap.vue</title>
<g id="a_node12"><a xlink:href="src/views/SelectCityFromMap.vue" xlink:title="SelectCityFromMap.vue">
<path fill="#41f083" stroke="#000000" d="M308.5,-132C308.5,-132 206.5,-132 206.5,-132 203.5,-132 200.5,-129 200.5,-126 200.5,-126 200.5,-120 200.5,-120 200.5,-117 203.5,-114 206.5,-114 206.5,-114 308.5,-114 308.5,-114 311.5,-114 314.5,-117 314.5,-120 314.5,-120 314.5,-126 314.5,-126 314.5,-129 311.5,-132 308.5,-132"/>
<text text-anchor="middle" x="257.5" y="-120.8" font-family="Helvetica,sans-Serif" font-size="9.00" fill="#000000">SelectCityFromMap.vue</text>
</a>
</g>
</g>
<!-- src/router/index.js&#45;&gt;src/views/SelectCityFromMap.vue -->
<g id="edge9" class="edge">
<title>src/router/index.js&#45;&gt;src/views/SelectCityFromMap.vue</title>
<path fill="none" stroke="#000000" stroke-width="2" stroke-opacity="0.200000" d="M172.2333,-160.3696C175.0471,-158.8785 177.7093,-157.1055 180,-155 186.1479,-149.3492 181.464,-143.197 188,-138 190.1196,-136.3147 192.3862,-134.8081 194.7592,-133.4619"/>
<polygon fill="#000000" fill-opacity="0.200000" stroke="#000000" stroke-width="2" stroke-opacity="0.200000" points="196.0445,-135.167 200.4699,-130.6034 194.1646,-131.4112 196.0445,-135.167"/>
</g>
<!-- src/views/WizardForm.vue -->
<g id="node13" class="node">
<title>src/views/WizardForm.vue</title>
<g id="a_node13"><a xlink:href="src/views/WizardForm.vue" xlink:title="WizardForm.vue">
<path fill="#41f083" stroke="#000000" d="M293,-102C293,-102 222,-102 222,-102 219,-102 216,-99 216,-96 216,-96 216,-90 216,-90 216,-87 219,-84 222,-84 222,-84 293,-84 293,-84 296,-84 299,-87 299,-90 299,-90 299,-96 299,-96 299,-99 296,-102 293,-102"/>
<text text-anchor="middle" x="257.5" y="-90.8" font-family="Helvetica,sans-Serif" font-size="9.00" fill="#000000">WizardForm.vue</text>
</a>
</g>
</g>
<!-- src/router/index.js&#45;&gt;src/views/WizardForm.vue -->
<g id="edge10" class="edge">
<title>src/router/index.js&#45;&gt;src/views/WizardForm.vue</title>
<path fill="none" stroke="#000000" stroke-width="2" stroke-opacity="0.200000" d="M172.1578,-161.3358C175.1287,-159.673 177.8496,-157.5956 180,-155 193.5185,-138.6832 173.3499,-123.3089 188,-108 193.8487,-101.8883 201.5467,-97.9738 209.6846,-95.5182"/>
<polygon fill="#000000" fill-opacity="0.200000" stroke="#000000" stroke-width="2" stroke-opacity="0.200000" points="210.6766,-97.4323 215.9701,-93.9125 209.637,-93.363 210.6766,-97.4323"/>
</g>
<!-- src/views/WizardFormComplete.vue -->
<g id="node14" class="node">
<title>src/views/WizardFormComplete.vue</title>
<g id="a_node14"><a xlink:href="src/views/WizardFormComplete.vue" xlink:title="WizardFormComplete.vue">
<path fill="#41f083" stroke="#000000" d="M313,-72C313,-72 202,-72 202,-72 199,-72 196,-69 196,-66 196,-66 196,-60 196,-60 196,-57 199,-54 202,-54 202,-54 313,-54 313,-54 316,-54 319,-57 319,-60 319,-60 319,-66 319,-66 319,-69 316,-72 313,-72"/>
<text text-anchor="middle" x="257.5" y="-60.8" font-family="Helvetica,sans-Serif" font-size="9.00" fill="#000000">WizardFormComplete.vue</text>
</a>
</g>
</g>
<!-- src/router/index.js&#45;&gt;src/views/WizardFormComplete.vue -->
<g id="edge11" class="edge">
<title>src/router/index.js&#45;&gt;src/views/WizardFormComplete.vue</title>
<path fill="none" stroke="#000000" stroke-width="2" stroke-opacity="0.200000" d="M172.3208,-161.4665C175.2651,-159.7823 177.9352,-157.6641 180,-155 201.0773,-127.8053 165.0329,-103.6187 188,-78 188.8652,-77.0349 189.7763,-76.1238 190.7281,-75.2638"/>
<polygon fill="#000000" fill-opacity="0.200000" stroke="#000000" stroke-width="2" stroke-opacity="0.200000" points="192.3163,-76.6926 195.8025,-71.3769 189.7623,-73.3584 192.3163,-76.6926"/>
</g>
<!-- src/views/WizardList.vue -->
<g id="node15" class="node">
<title>src/views/WizardList.vue</title>
<g id="a_node15"><a xlink:href="src/views/WizardList.vue" xlink:title="WizardList.vue">
<path fill="#41f083" stroke="#000000" d="M290,-42C290,-42 225,-42 225,-42 222,-42 219,-39 219,-36 219,-36 219,-30 219,-30 219,-27 222,-24 225,-24 225,-24 290,-24 290,-24 293,-24 296,-27 296,-30 296,-30 296,-36 296,-36 296,-39 293,-42 290,-42"/>
<text text-anchor="middle" x="257.5" y="-30.8" font-family="Helvetica,sans-Serif" font-size="9.00" fill="#000000">WizardList.vue</text>
</a>
</g>
</g>
<!-- src/router/index.js&#45;&gt;src/views/WizardList.vue -->
<g id="edge12" class="edge">
<title>src/router/index.js&#45;&gt;src/views/WizardList.vue</title>
<path fill="none" stroke="#000000" stroke-width="2" stroke-opacity="0.200000" d="M172.055,-161.7162C175.1222,-159.9929 177.8959,-157.7973 180,-155 194.333,-135.9446 172.3417,-65.9822 188,-48 194.3772,-40.6763 203.3985,-36.4373 212.8364,-34.0788"/>
<polygon fill="#000000" fill-opacity="0.200000" stroke="#000000" stroke-width="2" stroke-opacity="0.200000" points="213.3039,-36.1265 218.7468,-32.8425 212.4439,-32.0155 213.3039,-36.1265"/>
</g>
<!-- src/store/modules/calculator.js -->
<g id="node16" class="node">
<title>src/store/modules/calculator.js</title>
<g id="a_node16"><a xlink:href="src/store/modules/calculator.js" xlink:title="calculator.js">
<path fill="#ffffcc" stroke="#000000" d="M284,-470C284,-470 231,-470 231,-470 228,-470 225,-467 225,-464 225,-464 225,-458 225,-458 225,-455 228,-452 231,-452 231,-452 284,-452 284,-452 287,-452 290,-455 290,-458 290,-458 290,-464 290,-464 290,-467 287,-470 284,-470"/>
<text text-anchor="middle" x="257.5" y="-458.8" font-family="Helvetica,sans-Serif" font-size="9.00" fill="#000000">calculator.js</text>
</a>
</g>
</g>
<!-- src/store/index.js&#45;&gt;src/store/modules/calculator.js -->
<g id="edge13" class="edge">
<title>src/store/index.js&#45;&gt;src/store/modules/calculator.js</title>
<path fill="none" stroke="#000000" stroke-width="2" stroke-opacity="0.200000" d="M151.1346,-410.1529C158.5911,-420.5236 172.1595,-437.1323 188,-446 197.364,-451.242 208.3832,-454.6536 218.8536,-456.8734"/>
<polygon fill="#000000" fill-opacity="0.200000" stroke="#000000" stroke-width="2" stroke-opacity="0.200000" points="218.649,-458.9726 224.9383,-458.0475 219.4448,-454.8487 218.649,-458.9726"/>
</g>
<!-- src/store/modules/campaign_creation.js -->
<g id="node17" class="node">
<title>src/store/modules/campaign_creation.js</title>
<g id="a_node17"><a xlink:href="src/store/modules/campaign_creation.js" xlink:title="campaign_creation.js">
<path fill="#ffffcc" stroke="#000000" d="M303.5,-440C303.5,-440 211.5,-440 211.5,-440 208.5,-440 205.5,-437 205.5,-434 205.5,-434 205.5,-428 205.5,-428 205.5,-425 208.5,-422 211.5,-422 211.5,-422 303.5,-422 303.5,-422 306.5,-422 309.5,-425 309.5,-428 309.5,-428 309.5,-434 309.5,-434 309.5,-437 306.5,-440 303.5,-440"/>
<text text-anchor="middle" x="257.5" y="-428.8" font-family="Helvetica,sans-Serif" font-size="9.00" fill="#000000">campaign_creation.js</text>
</a>
</g>
</g>
<!-- src/store/index.js&#45;&gt;src/store/modules/campaign_creation.js -->
<g id="edge14" class="edge">
<title>src/store/index.js&#45;&gt;src/store/modules/campaign_creation.js</title>
<path fill="none" stroke="#000000" stroke-width="2" stroke-opacity="0.200000" d="M169.3928,-410.0933C175.4284,-412.181 181.911,-414.2879 188,-416 193.7038,-417.6038 199.7121,-419.1335 205.7101,-420.5606"/>
<polygon fill="#000000" fill-opacity="0.200000" stroke="#000000" stroke-width="2" stroke-opacity="0.200000" points="205.3732,-422.6382 211.693,-421.9523 206.3249,-418.5474 205.3732,-422.6382"/>
</g>
<!-- src/store/modules/dynamic_table.js -->
<g id="node18" class="node">
<title>src/store/modules/dynamic_table.js</title>
<g id="a_node18"><a xlink:href="src/store/modules/dynamic_table.js" xlink:title="dynamic_table.js">
<path fill="#ffffcc" stroke="#000000" d="M294.5,-410C294.5,-410 220.5,-410 220.5,-410 217.5,-410 214.5,-407 214.5,-404 214.5,-404 214.5,-398 214.5,-398 214.5,-395 217.5,-392 220.5,-392 220.5,-392 294.5,-392 294.5,-392 297.5,-392 300.5,-395 300.5,-398 300.5,-398 300.5,-404 300.5,-404 300.5,-407 297.5,-410 294.5,-410"/>
<text text-anchor="middle" x="257.5" y="-398.8" font-family="Helvetica,sans-Serif" font-size="9.00" fill="#000000">dynamic_table.js</text>
</a>
</g>
</g>
<!-- src/store/index.js&#45;&gt;src/store/modules/dynamic_table.js -->
<g id="edge15" class="edge">
<title>src/store/index.js&#45;&gt;src/store/modules/dynamic_table.js</title>
<path fill="none" stroke="#000000" stroke-width="2" stroke-opacity="0.200000" d="M172.2331,-401C183.0746,-401 195.8965,-401 208.2595,-401"/>
<polygon fill="#000000" fill-opacity="0.200000" stroke="#000000" stroke-width="2" stroke-opacity="0.200000" points="208.2811,-403.1001 214.2811,-401 208.281,-398.9001 208.2811,-403.1001"/>
</g>
<!-- src/store/modules/wizard_form.js -->
<g id="node19" class="node">
<title>src/store/modules/wizard_form.js</title>
<g id="a_node19"><a xlink:href="src/store/modules/wizard_form.js" xlink:title="wizard_form.js">
<path fill="#ffffcc" stroke="#000000" d="M289.5,-380C289.5,-380 225.5,-380 225.5,-380 222.5,-380 219.5,-377 219.5,-374 219.5,-374 219.5,-368 219.5,-368 219.5,-365 222.5,-362 225.5,-362 225.5,-362 289.5,-362 289.5,-362 292.5,-362 295.5,-365 295.5,-368 295.5,-368 295.5,-374 295.5,-374 295.5,-377 292.5,-380 289.5,-380"/>
<text text-anchor="middle" x="257.5" y="-368.8" font-family="Helvetica,sans-Serif" font-size="9.00" fill="#000000">wizard_form.js</text>
</a>
</g>
</g>
<!-- src/store/index.js&#45;&gt;src/store/modules/wizard_form.js -->
<g id="edge16" class="edge">
<title>src/store/index.js&#45;&gt;src/store/modules/wizard_form.js</title>
<path fill="none" stroke="#000000" stroke-width="2" stroke-opacity="0.200000" d="M169.3928,-391.9067C175.4284,-389.819 181.911,-387.7121 188,-386 196.0489,-383.7368 204.7039,-381.6212 213.0809,-379.7334"/>
<polygon fill="#000000" fill-opacity="0.200000" stroke="#000000" stroke-width="2" stroke-opacity="0.200000" points="214.0112,-381.6787 219.418,-378.3356 213.1065,-377.5773 214.0112,-381.6787"/>
</g>
</g>
</svg>
